<svg xmlns="http://www.w3.org/2000/svg" width="219.603" height="48.989" viewBox="0 0 219.603 48.989">
  <g id="Group_10350" data-name="Group 10350" transform="translate(-666.001 -3152.106)">
    <path id="Path_482" data-name="Path 482" d="M1790.572-651.558a7.38,7.38,0,0,1-3.8,1.034q-14.441-.007-28.882,0v.026h-2.316v-1.93h.015V-663.42l-.1-.02q-.494,1.077-.987,2.154c-1.248,2.717-2.486,5.439-3.754,8.147a7.382,7.382,0,0,1-.879,1.384,4.2,4.2,0,0,1-6.4.481,13.444,13.444,0,0,1-3.008-4.1c-1.575-3.29-3.19-6.56-4.781-9.842a.573.573,0,0,0-.588-.405q-11.514.016-23.029.009c-.108,0-.217.014-.362.024v1.491c.2.009.391.025.588.025q8.366,0,16.731,0a7.428,7.428,0,0,1,5.439,2.267,7.144,7.144,0,0,1,2.087,3.175,5.99,5.99,0,0,1-3.874,7.187,7.531,7.531,0,0,1-2.559.5c-7.394.039-14.788.023-22.183.022-.077,0-.154-.005-.241-.012l-.891.041v-5.631h24.015v-1.743h-.594c-5.624,0-11.248-.035-16.872.014a7.969,7.969,0,0,1-6.969-3.912,5.488,5.488,0,0,1,1.58-7.558,8.7,8.7,0,0,1,5.132-1.541q11.28.012,22.559.007a7.92,7.92,0,0,1,1.026.089,3.974,3.974,0,0,1,2.073.93,10.815,10.815,0,0,1,3.262,4.4c1.164,3.024,2.4,6.019,3.612,9.026.05.124.11.244.2.444.566-1.347,1.1-2.614,1.63-3.882,1.057-2.527,2.108-5.056,3.17-7.581a5.191,5.191,0,0,1,6.04-3.31,3.976,3.976,0,0,1,1.266.479c2.122,1.358,3.53,3.153,3.505,5.824-.025,2.694-.005,5.389-.005,8.083v.582h26.243v-1.717h-.592c-5.656,0-11.311-.014-16.966.007a7.493,7.493,0,0,1-5.623-2.378,6.8,6.8,0,0,1-1.975-3.133,5.631,5.631,0,0,1,2.252-5.913,8.214,8.214,0,0,1,4.79-1.566c2.146-.026,4.292-.01,6.438-.01h15.431c.023.255.042.466.064.707l.7.054v4.868h-23.637v1.556h17.229a7.524,7.524,0,0,1,5.564,2.308,7.147,7.147,0,0,1,2.067,3.186A5.956,5.956,0,0,1,1790.572-651.558Z" transform="translate(-1039.478 3823.373)" fill="#925af2"/>
    <path id="Path_483" data-name="Path 483" d="M4.45,2.518a4.749,4.749,0,0,1-1.923-.374,3.155,3.155,0,0,1-1.343-1.06A2.693,2.693,0,0,1,.7-.518H2.558A1.681,1.681,0,0,0,3.1.611a1.92,1.92,0,0,0,1.35.443,2.08,2.08,0,0,0,1.4-.435A1.414,1.414,0,0,0,6.357-.5a1.225,1.225,0,0,0-.313-.87,2.092,2.092,0,0,0-.778-.519,11.735,11.735,0,0,0-1.289-.4,12.081,12.081,0,0,1-1.686-.557,2.786,2.786,0,0,1-1.106-.877A2.536,2.536,0,0,1,.727-5.309a2.821,2.821,0,0,1,.458-1.6A2.924,2.924,0,0,1,2.466-7.964a4.657,4.657,0,0,1,1.907-.366A3.975,3.975,0,0,1,6.9-7.56,2.843,2.843,0,0,1,7.99-5.447H6.067a1.393,1.393,0,0,0-.549-.992A2.031,2.031,0,0,0,4.19-6.851a1.883,1.883,0,0,0-1.221.381A1.329,1.329,0,0,0,2.5-5.37a1.115,1.115,0,0,0,.3.8,2.1,2.1,0,0,0,.755.5,11.726,11.726,0,0,0,1.251.4,13.062,13.062,0,0,1,1.717.58A2.857,2.857,0,0,1,7.646-2.2a2.566,2.566,0,0,1,.465,1.61A2.894,2.894,0,0,1,7.677.931,3.137,3.137,0,0,1,6.41,2.083,4.176,4.176,0,0,1,4.45,2.518ZM9.592-1.8a4.764,4.764,0,0,1,.526-2.281A3.744,3.744,0,0,1,11.575-5.6a4.215,4.215,0,0,1,2.136-.534,4.191,4.191,0,0,1,2.525.725,3.568,3.568,0,0,1,1.35,2.068H15.711a1.985,1.985,0,0,0-.732-.977,2.163,2.163,0,0,0-1.266-.351,2.106,2.106,0,0,0-1.7.755A3.2,3.2,0,0,0,11.377-1.8,3.227,3.227,0,0,0,12.01.321a2.1,2.1,0,0,0,1.7.763,1.931,1.931,0,0,0,2-1.328h1.877a3.757,3.757,0,0,1-1.373,2.037,4.053,4.053,0,0,1-2.5.755,4.169,4.169,0,0,1-2.136-.542A3.8,3.8,0,0,1,10.118.481,4.764,4.764,0,0,1,9.592-1.8ZM23.676-6.133a3.526,3.526,0,0,1,1.717.412A2.932,2.932,0,0,1,26.582-4.5a4.073,4.073,0,0,1,.435,1.953V2.411H25.293v-4.7a2.44,2.44,0,0,0-.565-1.732,2.009,2.009,0,0,0-1.541-.6,2.034,2.034,0,0,0-1.549.6,2.42,2.42,0,0,0-.572,1.732v4.7H19.327V-8.88h1.739v3.86a2.917,2.917,0,0,1,1.122-.824A3.75,3.75,0,0,1,23.676-6.133Zm9.2,8.682a4.306,4.306,0,0,1-2.151-.542A3.891,3.891,0,0,1,29.215.481,4.6,4.6,0,0,1,28.665-1.8a4.514,4.514,0,0,1,.565-2.274A3.9,3.9,0,0,1,30.771-5.6a4.472,4.472,0,0,1,2.182-.534,4.472,4.472,0,0,1,2.182.534,3.9,3.9,0,0,1,1.541,1.526A4.514,4.514,0,0,1,37.241-1.8a4.421,4.421,0,0,1-.58,2.274,4.015,4.015,0,0,1-1.579,1.534A4.552,4.552,0,0,1,32.877,2.549Zm0-1.511a2.589,2.589,0,0,0,1.259-.32,2.442,2.442,0,0,0,.954-.961A3.091,3.091,0,0,0,35.455-1.8,3.155,3.155,0,0,0,35.1-3.349a2.369,2.369,0,0,0-.931-.954,2.545,2.545,0,0,0-1.251-.32,2.5,2.5,0,0,0-1.244.32,2.287,2.287,0,0,0-.908.954A3.273,3.273,0,0,0,30.435-1.8,2.95,2.95,0,0,0,31.129.3,2.294,2.294,0,0,0,32.877,1.038Zm9.735,1.511a4.306,4.306,0,0,1-2.151-.542A3.891,3.891,0,0,1,38.95.481,4.6,4.6,0,0,1,38.4-1.8a4.515,4.515,0,0,1,.565-2.274A3.9,3.9,0,0,1,40.506-5.6a4.472,4.472,0,0,1,2.182-.534A4.472,4.472,0,0,1,44.87-5.6a3.9,3.9,0,0,1,1.541,1.526A4.514,4.514,0,0,1,46.976-1.8,4.421,4.421,0,0,1,46.4.474a4.015,4.015,0,0,1-1.579,1.534A4.552,4.552,0,0,1,42.612,2.549Zm0-1.511a2.589,2.589,0,0,0,1.259-.32,2.442,2.442,0,0,0,.954-.961A3.091,3.091,0,0,0,45.19-1.8a3.155,3.155,0,0,0-.351-1.549,2.369,2.369,0,0,0-.931-.954,2.545,2.545,0,0,0-1.251-.32,2.5,2.5,0,0,0-1.244.32,2.287,2.287,0,0,0-.908.954A3.273,3.273,0,0,0,40.17-1.8,2.95,2.95,0,0,0,40.865.3,2.294,2.294,0,0,0,42.612,1.038ZM50.439-8.88V2.411H48.7V-8.88Zm17.425.687v10.6H66.125V-4.852L62.89,2.411H61.685l-3.25-7.263V2.411H56.7v-10.6h1.877L62.3.123,66-8.193ZM69.574-1.83A4.653,4.653,0,0,1,70.1-4.074a3.858,3.858,0,0,1,1.434-1.518,3.843,3.843,0,0,1,2.007-.542,3.67,3.67,0,0,1,1.732.389,3.515,3.515,0,0,1,1.183.969V-6H78.21V2.411H76.455V1.16a3.455,3.455,0,0,1-1.205.992,3.715,3.715,0,0,1-1.74.4,3.7,3.7,0,0,1-1.984-.557A3.95,3.95,0,0,1,70.1.435,4.788,4.788,0,0,1,69.574-1.83Zm6.882.031A3.044,3.044,0,0,0,76.1-3.311a2.517,2.517,0,0,0-.938-.977,2.455,2.455,0,0,0-1.251-.336,2.5,2.5,0,0,0-1.251.328,2.474,2.474,0,0,0-.938.961,3,3,0,0,0-.359,1.5A3.132,3.132,0,0,0,71.718-.3a2.53,2.53,0,0,0,.946,1,2.426,2.426,0,0,0,1.244.343A2.455,2.455,0,0,0,75.158.7,2.5,2.5,0,0,0,76.1-.282,3.088,3.088,0,0,0,76.455-1.8Zm8.285-4.333a3.77,3.77,0,0,1,1.778.412A2.93,2.93,0,0,1,87.747-4.5a4.015,4.015,0,0,1,.443,1.953V2.411H86.465v-4.7A2.44,2.44,0,0,0,85.9-4.02a2.009,2.009,0,0,0-1.541-.6,2.034,2.034,0,0,0-1.549.6,2.42,2.42,0,0,0-.572,1.732v4.7H80.5V-6h1.739v.961a2.879,2.879,0,0,1,1.091-.809A3.488,3.488,0,0,1,84.741-6.133Zm5.081,4.3a4.653,4.653,0,0,1,.526-2.243,3.859,3.859,0,0,1,1.434-1.518,3.843,3.843,0,0,1,2.007-.542,3.67,3.67,0,0,1,1.732.389,3.515,3.515,0,0,1,1.183.969V-6h1.755V2.411H96.7V1.16a3.455,3.455,0,0,1-1.205.992,3.715,3.715,0,0,1-1.739.4,3.7,3.7,0,0,1-1.984-.557A3.95,3.95,0,0,1,90.349.435,4.788,4.788,0,0,1,89.822-1.83ZM96.7-1.8a3.044,3.044,0,0,0-.359-1.511,2.517,2.517,0,0,0-.938-.977,2.455,2.455,0,0,0-1.251-.336,2.5,2.5,0,0,0-1.251.328,2.474,2.474,0,0,0-.938.961,3,3,0,0,0-.359,1.5A3.132,3.132,0,0,0,91.966-.3a2.53,2.53,0,0,0,.946,1,2.426,2.426,0,0,0,1.244.343A2.455,2.455,0,0,0,95.407.7a2.5,2.5,0,0,0,.938-.984A3.088,3.088,0,0,0,96.7-1.8Zm7.431-4.333a3.728,3.728,0,0,1,1.732.389,3.326,3.326,0,0,1,1.183.969V-6H108.8V2.549a4.3,4.3,0,0,1-.488,2.068A3.528,3.528,0,0,1,106.9,6.043a4.432,4.432,0,0,1-2.2.519,4.785,4.785,0,0,1-2.838-.8,2.956,2.956,0,0,1-1.282-2.174H102.3a1.872,1.872,0,0,0,.847,1.06,2.868,2.868,0,0,0,1.549.4,2.316,2.316,0,0,0,1.7-.641,2.5,2.5,0,0,0,.648-1.862v-1.4a3.547,3.547,0,0,1-1.2,1,3.58,3.58,0,0,1-1.717.4,3.763,3.763,0,0,1-2.007-.557A3.931,3.931,0,0,1,100.694.435a4.788,4.788,0,0,1-.526-2.266,4.653,4.653,0,0,1,.526-2.243,3.859,3.859,0,0,1,1.434-1.518A3.843,3.843,0,0,1,104.135-6.133ZM107.049-1.8a3.044,3.044,0,0,0-.359-1.511,2.517,2.517,0,0,0-.938-.977,2.455,2.455,0,0,0-1.251-.336,2.5,2.5,0,0,0-1.251.328,2.474,2.474,0,0,0-.938.961,3,3,0,0,0-.359,1.5A3.132,3.132,0,0,0,102.311-.3a2.53,2.53,0,0,0,.946,1,2.426,2.426,0,0,0,1.244.343A2.455,2.455,0,0,0,105.752.7a2.5,2.5,0,0,0,.938-.984A3.088,3.088,0,0,0,107.049-1.8ZM118.8-2a5.438,5.438,0,0,1-.061.854h-6.424a2.333,2.333,0,0,0,.748,1.617,2.36,2.36,0,0,0,1.648.61,2.035,2.035,0,0,0,1.984-1.175h1.877a3.787,3.787,0,0,1-1.381,1.9,4.052,4.052,0,0,1-2.48.74,4.294,4.294,0,0,1-2.159-.542,3.854,3.854,0,0,1-1.5-1.526,4.655,4.655,0,0,1-.542-2.281,4.764,4.764,0,0,1,.526-2.281,3.7,3.7,0,0,1,1.48-1.518,4.4,4.4,0,0,1,2.19-.534,4.282,4.282,0,0,1,2.121.519,3.666,3.666,0,0,1,1.45,1.457A4.389,4.389,0,0,1,118.8-2Zm-1.816-.549a1.98,1.98,0,0,0-.687-1.541,2.455,2.455,0,0,0-1.663-.58,2.234,2.234,0,0,0-1.541.572,2.391,2.391,0,0,0-.763,1.549Zm13.7-3.586a3.77,3.77,0,0,1,1.778.412A2.976,2.976,0,0,1,133.7-4.5a3.96,3.96,0,0,1,.45,1.953V2.411h-1.724v-4.7a2.44,2.44,0,0,0-.565-1.732,2.009,2.009,0,0,0-1.541-.6,2.034,2.034,0,0,0-1.549.6,2.42,2.42,0,0,0-.572,1.732v4.7h-1.724v-4.7a2.44,2.44,0,0,0-.565-1.732,2.009,2.009,0,0,0-1.541-.6,2.034,2.034,0,0,0-1.549.6,2.42,2.42,0,0,0-.572,1.732v4.7h-1.739V-6h1.739v.961a2.892,2.892,0,0,1,1.083-.809,3.434,3.434,0,0,1,1.4-.29,3.737,3.737,0,0,1,1.8.427,2.92,2.92,0,0,1,1.221,1.236,2.82,2.82,0,0,1,1.19-1.213A3.52,3.52,0,0,1,130.685-6.133ZM144.067-2a5.438,5.438,0,0,1-.061.854h-6.424A2.333,2.333,0,0,0,138.33.474a2.36,2.36,0,0,0,1.648.61,2.035,2.035,0,0,0,1.984-1.175h1.877a3.787,3.787,0,0,1-1.381,1.9,4.052,4.052,0,0,1-2.48.74,4.294,4.294,0,0,1-2.159-.542,3.854,3.854,0,0,1-1.5-1.526,4.655,4.655,0,0,1-.542-2.281,4.764,4.764,0,0,1,.526-2.281,3.7,3.7,0,0,1,1.48-1.518,4.4,4.4,0,0,1,2.19-.534,4.282,4.282,0,0,1,2.121.519,3.666,3.666,0,0,1,1.45,1.457A4.389,4.389,0,0,1,144.067-2Zm-1.816-.549a1.98,1.98,0,0,0-.687-1.541,2.455,2.455,0,0,0-1.663-.58,2.234,2.234,0,0,0-1.541.572,2.391,2.391,0,0,0-.763,1.549Zm7.767-3.586a3.77,3.77,0,0,1,1.778.412A2.93,2.93,0,0,1,153.024-4.5a4.016,4.016,0,0,1,.443,1.953V2.411h-1.724v-4.7a2.44,2.44,0,0,0-.565-1.732,2.009,2.009,0,0,0-1.541-.6,2.034,2.034,0,0,0-1.549.6,2.42,2.42,0,0,0-.572,1.732v4.7h-1.739V-6h1.739v.961a2.879,2.879,0,0,1,1.091-.809A3.488,3.488,0,0,1,150.018-6.133Zm7.69,1.556V.077a.893.893,0,0,0,.221.679,1.1,1.1,0,0,0,.755.206h1.068v1.45h-1.373a2.647,2.647,0,0,1-1.8-.549,2.264,2.264,0,0,1-.626-1.785V-4.577h-.992V-6h.992v-2.09h1.755V-6h2.045v1.419Zm11.108,7.1a4.749,4.749,0,0,1-1.923-.374,3.155,3.155,0,0,1-1.343-1.06,2.693,2.693,0,0,1-.488-1.6h1.862a1.681,1.681,0,0,0,.542,1.129,1.92,1.92,0,0,0,1.35.443,2.08,2.08,0,0,0,1.4-.435,1.414,1.414,0,0,0,.5-1.122,1.225,1.225,0,0,0-.313-.87,2.092,2.092,0,0,0-.778-.519,11.737,11.737,0,0,0-1.289-.4,12.082,12.082,0,0,1-1.686-.557,2.786,2.786,0,0,1-1.106-.877,2.536,2.536,0,0,1-.458-1.587,2.82,2.82,0,0,1,.458-1.6,2.924,2.924,0,0,1,1.282-1.053,4.657,4.657,0,0,1,1.907-.366,3.975,3.975,0,0,1,2.525.771,2.843,2.843,0,0,1,1.091,2.113h-1.923a1.393,1.393,0,0,0-.549-.992,2.031,2.031,0,0,0-1.328-.412,1.884,1.884,0,0,0-1.221.381,1.329,1.329,0,0,0-.473,1.1,1.115,1.115,0,0,0,.3.8,2.1,2.1,0,0,0,.755.5,11.724,11.724,0,0,0,1.251.4,13.063,13.063,0,0,1,1.717.58,2.857,2.857,0,0,1,1.129.893,2.566,2.566,0,0,1,.465,1.61,2.894,2.894,0,0,1-.435,1.526,3.137,3.137,0,0,1-1.266,1.152A4.176,4.176,0,0,1,168.816,2.518ZM182.107-6l-5.157,12.36h-1.8l1.709-4.089L173.547-6h1.938L177.85.413,180.306-6Zm4.364,8.545a4.236,4.236,0,0,1-1.778-.359,3.122,3.122,0,0,1-1.244-.977,2.434,2.434,0,0,1-.488-1.381h1.8a1.228,1.228,0,0,0,.511.893,1.856,1.856,0,0,0,1.167.359A1.966,1.966,0,0,0,187.577.8a.852.852,0,0,0,.4-.725.744.744,0,0,0-.45-.7,8.437,8.437,0,0,0-1.427-.5,13.771,13.771,0,0,1-1.541-.5,2.7,2.7,0,0,1-1.03-.748,1.959,1.959,0,0,1-.435-1.328,2.07,2.07,0,0,1,.4-1.228,2.642,2.642,0,0,1,1.137-.877,4.247,4.247,0,0,1,1.7-.32,3.513,3.513,0,0,1,2.312.725,2.6,2.6,0,0,1,.938,1.976h-1.739a1.239,1.239,0,0,0-.458-.9,1.712,1.712,0,0,0-1.114-.336,1.808,1.808,0,0,0-1.053.259.8.8,0,0,0-.366.687.743.743,0,0,0,.244.565,1.739,1.739,0,0,0,.6.359q.351.13,1.038.328a11.289,11.289,0,0,1,1.5.5,2.8,2.8,0,0,1,1.015.74,1.958,1.958,0,0,1,.443,1.3,2.175,2.175,0,0,1-.4,1.282,2.631,2.631,0,0,1-1.122.885A4.179,4.179,0,0,1,186.471,2.549ZM193.6-4.577V.077a.893.893,0,0,0,.221.679,1.1,1.1,0,0,0,.755.206h1.068v1.45h-1.373a2.647,2.647,0,0,1-1.8-.549,2.264,2.264,0,0,1-.626-1.785V-4.577h-.992V-6h.992v-2.09H193.6V-6h2.045v1.419ZM204.949-2a5.438,5.438,0,0,1-.061.854h-6.424a2.333,2.333,0,0,0,.748,1.617,2.36,2.36,0,0,0,1.648.61,2.035,2.035,0,0,0,1.984-1.175h1.877a3.787,3.787,0,0,1-1.381,1.9,4.052,4.052,0,0,1-2.48.74,4.294,4.294,0,0,1-2.159-.542,3.854,3.854,0,0,1-1.5-1.526,4.655,4.655,0,0,1-.542-2.281,4.764,4.764,0,0,1,.526-2.281A3.7,3.7,0,0,1,198.67-5.6a4.4,4.4,0,0,1,2.19-.534,4.282,4.282,0,0,1,2.121.519,3.666,3.666,0,0,1,1.45,1.457A4.388,4.388,0,0,1,204.949-2Zm-1.816-.549a1.979,1.979,0,0,0-.687-1.541,2.455,2.455,0,0,0-1.663-.58,2.234,2.234,0,0,0-1.541.572,2.391,2.391,0,0,0-.763,1.549Zm13.7-3.586a3.77,3.77,0,0,1,1.778.412A2.976,2.976,0,0,1,219.849-4.5a3.96,3.96,0,0,1,.45,1.953V2.411h-1.724v-4.7a2.44,2.44,0,0,0-.565-1.732,2.009,2.009,0,0,0-1.541-.6,2.034,2.034,0,0,0-1.549.6,2.42,2.42,0,0,0-.572,1.732v4.7h-1.724v-4.7a2.44,2.44,0,0,0-.565-1.732,2.009,2.009,0,0,0-1.541-.6,2.034,2.034,0,0,0-1.549.6,2.42,2.42,0,0,0-.572,1.732v4.7h-1.74V-6h1.74v.961a2.892,2.892,0,0,1,1.083-.809,3.434,3.434,0,0,1,1.4-.29,3.737,3.737,0,0,1,1.8.427,2.92,2.92,0,0,1,1.221,1.236,2.82,2.82,0,0,1,1.19-1.213A3.52,3.52,0,0,1,216.836-6.133Z" transform="translate(665.305 3194.533)" fill="#925af2"/>
  </g>
</svg>
