<svg xmlns="http://www.w3.org/2000/svg" width="131.949" height="33.333" viewBox="0 0 131.949 33.333">
  <g id="homepage-logo" transform="translate(14745 5213.41)">
    <g id="WY9XXu.tif" transform="translate(-14745 -5213.41)">
      <g id="Group_10475" data-name="Group 10475" transform="translate(0 0)">
        <path id="Path_1239" data-name="Path 1239" d="M679.178-276.035c0-.646.013-1.292,0-1.938-.018-.79-.032-1.348,1.07-1.616a9.171,9.171,0,0,0,3.286-1.7,16.643,16.643,0,0,0,4.916-5.515,8.49,8.49,0,0,0,.894-5.4c-.036-.228-.2-.512.07-.679.229-.14.411.089.6.2a13.732,13.732,0,0,1,2.55,1.757,1.036,1.036,0,0,1,.416.754,30.325,30.325,0,0,1-.329,5.793,12.942,12.942,0,0,1-5.214,8.214c-1.277.959-2.44,1.969-2.505,3.746a7.143,7.143,0,0,0,2.1,5.463,11.754,11.754,0,0,0,3.553,2.411c.491.228.507.4.06.686a20.094,20.094,0,0,1-6.4,2.471,1.343,1.343,0,0,1-1.393-.6c-2.513-2.8-3.155-6.256-3.514-9.814A31.963,31.963,0,0,1,679.178-276.035Z" transform="translate(-664.474 294.589)" fill="#fff"/>
        <path id="Path_1240" data-name="Path 1240" d="M744.06-267.6a12.886,12.886,0,0,1,1.565,1.91,16.755,16.755,0,0,1,2.118,5.043,17.593,17.593,0,0,1,.311,6.417,17.341,17.341,0,0,1-3.627,8.407,3.6,3.6,0,0,1-.225.294c-1.532,1.579-1.927,1.595-3.823.292a5.705,5.705,0,0,1-2.52-3.014,3.909,3.909,0,0,1,.509-3.475c.878-1.33,2.042-2.435,2.931-3.752a17.152,17.152,0,0,0,2.619-11.74c-.01-.1-.013-.191-.019-.286Z" transform="translate(-714.209 273.059)" fill="#fff"/>
        <path id="Path_1241" data-name="Path 1241" d="M600.624-225.607a2.557,2.557,0,0,1-2.5-1.425,19.1,19.1,0,0,1-2.744-7.309c-.194-1.1-.355-2.205-.513-3.31a2.755,2.755,0,0,0-1.333-1.8,38.616,38.616,0,0,1-4.969-4.025,10.055,10.055,0,0,1-1.817-2.706,2.42,2.42,0,0,1-.09-1.94,20.913,20.913,0,0,1,1.051-2.3c.107-.215.187-.545.464-.525s.293.364.359.579a11.749,11.749,0,0,0,1.936,3.747,8.292,8.292,0,0,0,6.239,3.416c.679.042.722.4.749.921a55.37,55.37,0,0,0,1.31,10.778,20.148,20.148,0,0,0,2.148,5.374c.083.14.289.252.173.451S600.775-225.6,600.624-225.607Z" transform="translate(-585.686 258.902)" fill="#fff"/>
        <path id="Path_1242" data-name="Path 1242" d="M613.359-298.791c-.294-.384-.756-.312-1.151-.422q-1.5-.418-3.01-.827c-.141-.038-.326-.028-.37-.2-.065-.246.171-.265.315-.328,2.413-1.052,4.856-2.043,7.229-3.178a3.827,3.827,0,0,1,2.335-.231l7.959,1.073c.135.018.339-.027.336.186,0,.182-.152.3-.311.389-.774.436-1.558.858-2.317,1.319a6.1,6.1,0,0,0-1.675,1.074,16.539,16.539,0,0,0-2.436,1.288c-.874.485-1.683,1.138-2.844.8C616.087-298.236,614.714-298.482,613.359-298.791Z" transform="translate(-604.663 304.05)" fill="#fff"/>
        <path id="Path_1243" data-name="Path 1243" d="M636.824-275.419c1.355.309,2.728.555,4.059.945,1.16.34,1.969-.313,2.844-.8a16.7,16.7,0,0,1,2.436-1.288,4.982,4.982,0,0,1,.373,5.567,5.39,5.39,0,0,1-9.251.247A4.785,4.785,0,0,1,636.824-275.419Z" transform="translate(-628.128 280.677)" fill="#fff"/>
        <path id="Path_1244" data-name="Path 1244" d="M581.093-191.671c.094-.428-.166-.9.174-1.055s.474.346.679.566a19.074,19.074,0,0,0,4.039,3.645,2.813,2.813,0,0,1,1.633,2.7,8.109,8.109,0,0,0,.4,2.481,16.962,16.962,0,0,0,2.142,4.751c.043.06.113.128.11.19-.012.215.442.342.165.545-.162.12-.436,0-.646-.167-.346-.277-.734-.5-1.1-.749A16.894,16.894,0,0,1,581.093-191.671Z" transform="translate(-581.086 209.423)" fill="#fff"/>
      </g>
    </g>
    <path id="Jamiah" d="M8.44-7.838A2.366,2.366,0,0,1,5.957-5.183c-1.77,0-2.507-1.254-2.532-2.827H1.189A4.478,4.478,0,0,0,5.957-3.192,4.413,4.413,0,0,0,10.7-7.838V-20.5H8.44Zm5.825-2.31c0,4.178,2.777,7.005,6.366,7.005A5.625,5.625,0,0,0,25.67-5.871v2.507h2.261V-16.834H25.67v2.458a5.59,5.59,0,0,0-5.014-2.679C17.042-17.055,14.265-14.351,14.265-10.148Zm11.4.025c0,3.171-2.114,5.014-4.572,5.014s-4.547-1.868-4.547-5.039,2.089-4.965,4.547-4.965S25.67-13.245,25.67-10.124ZM51.158-3.364H53.37V-11.3c0-3.859-2.384-5.776-5.457-5.776a4.986,4.986,0,0,0-4.768,3,5.068,5.068,0,0,0-4.94-3,4.869,4.869,0,0,0-4.252,2.188v-1.942H31.716V-3.364h2.237v-7.423c0-2.9,1.548-4.35,3.81-4.35,2.212,0,3.687,1.4,3.687,4.154v7.619h2.212v-7.423c0-2.9,1.548-4.35,3.81-4.35,2.212,0,3.687,1.4,3.687,4.154Zm5.874,0h2.237V-16.834H57.032Zm1.155-15.657a1.49,1.49,0,0,0,1.475-1.524,1.49,1.49,0,0,0-1.475-1.524,1.5,1.5,0,0,0-1.524,1.524A1.5,1.5,0,0,0,58.188-19.021Zm4.056,8.873c0,4.178,2.777,7.005,6.366,7.005a5.625,5.625,0,0,0,5.039-2.728v2.507h2.261V-16.834H73.648v2.458a5.59,5.59,0,0,0-5.014-2.679C65.021-17.055,62.243-14.351,62.243-10.148Zm11.4.025c0,3.171-2.114,5.014-4.572,5.014s-4.547-1.868-4.547-5.039,2.089-4.965,4.547-4.965S73.648-13.245,73.648-10.124Zm6.046,6.759h2.237v-7.447c0-2.9,1.573-4.326,3.859-4.326,2.261,0,3.761,1.4,3.761,4.154v7.619h2.212V-11.3c0-3.859-2.384-5.776-5.383-5.776a5.068,5.068,0,0,0-4.449,2.188v-6.661H79.694Z" transform="translate(-14705.063 -5184.083)" fill="#fff" stroke="#fff" stroke-width="0.5"/>
  </g>
</svg>
